<?xml version="1.0" standalone="no"?>
<!DOCTYPE svg PUBLIC "-//W3C//DTD SVG 20010904//EN"
 "http://www.w3.org/TR/2001/REC-SVG-20010904/DTD/svg10.dtd">
<svg version="1.0" xmlns="http://www.w3.org/2000/svg"
 width="2816.000000pt" height="1536.000000pt" viewBox="0 0 2816.000000 1536.000000"
 preserveAspectRatio="xMidYMid meet">

<g transform="translate(0.000000,1536.000000) scale(0.100000,-0.100000)"
fill="#000000" stroke="none">
<path d="M5500 8855 l0 -905 375 0 375 0 0 591 0 590 628 -4 c669 -4 694 -5
890 -58 326 -88 636 -318 801 -596 79 -133 147 -321 175 -485 l7 -38 384 0
385 0 0 31 c0 58 -49 273 -90 398 -79 238 -153 382 -289 566 -85 116 -308 341
-400 403 -340 231 -678 354 -1106 402 -55 6 -493 10 -1112 10 l-1023 0 0 -905z"/>
<path d="M7592 8830 c-12 -11 -24 -31 -27 -43 -6 -28 -75 -600 -145 -1207 -17
-146 -33 -272 -37 -280 -9 -23 -18 22 -62 305 -127 810 -115 749 -148 775 -36
28 -84 26 -113 -5 -19 -21 -33 -78 -91 -367 -91 -457 -100 -495 -109 -477 -4
8 -40 141 -80 296 -40 156 -81 296 -91 312 -22 37 -67 48 -107 27 -25 -13 -35
-32 -70 -134 -23 -65 -55 -150 -70 -188 l-29 -69 -833 -3 c-459 -1 -837 -5
-842 -10 -4 -4 -10 -39 -13 -79 -5 -65 -4 -73 14 -83 14 -7 287 -10 890 -8
l869 3 25 23 c14 13 35 51 47 83 13 33 26 61 30 64 9 6 11 -3 100 -370 98
-404 89 -374 124 -397 37 -23 93 -18 117 11 9 11 30 92 48 183 18 89 48 236
67 325 18 90 34 173 34 185 0 25 16 56 24 47 5 -4 34 -184 136 -839 27 -173
52 -327 55 -341 7 -30 40 -64 72 -73 26 -8 78 16 92 42 13 25 63 414 141 1112
30 267 48 401 54 408 6 5 13 -33 61 -328 97 -600 101 -620 126 -646 16 -17 33
-24 61 -24 48 0 82 31 96 86 6 22 41 164 78 317 37 152 70 277 73 277 4 0 33
-84 66 -187 90 -281 107 -309 177 -296 41 8 63 38 130 188 l64 140 834 5 c459
3 836 6 838 8 2 1 2 39 0 85 l-3 82 -870 3 c-627 1 -878 -1 -897 -9 -20 -8
-37 -30 -58 -75 -16 -35 -33 -64 -37 -64 -5 0 -42 107 -83 237 -41 130 -84
250 -95 267 -38 57 -107 60 -147 5 -12 -16 -43 -120 -78 -263 -32 -130 -60
-240 -64 -243 -3 -3 -8 0 -10 8 -6 18 -126 746 -161 974 -14 94 -30 182 -36
196 -19 49 -98 65 -137 29z"/>
<path d="M16280 8749 c-380 -23 -741 -261 -900 -595 -191 -402 -122 -897 169
-1207 228 -243 531 -358 905 -344 246 9 421 64 603 189 80 55 190 165 177 177
-5 4 -62 56 -127 116 l-118 108 -37 -32 c-183 -157 -298 -207 -497 -218 -313
-17 -571 127 -705 395 -69 137 -92 306 -65 467 28 170 86 287 200 400 65 66
97 89 175 128 128 62 225 81 384 74 188 -8 309 -54 456 -172 44 -36 84 -65 88
-65 4 0 61 54 127 120 l119 120 -39 41 c-96 98 -261 198 -411 248 -138 46
-301 62 -504 50z"/>
<path d="M10760 7675 l0 -1045 543 0 c657 0 725 8 938 100 333 144 544 416
600 772 15 98 6 348 -15 438 -98 403 -407 679 -855 764 -70 13 -176 16 -647
16 l-564 0 0 -1045z m1160 696 c281 -72 473 -274 521 -545 19 -112 7 -294 -25
-391 -41 -121 -73 -172 -163 -262 -92 -92 -190 -147 -328 -185 -73 -20 -110
-22 -422 -26 l-343 -4 0 715 c0 392 3 717 7 720 3 4 155 5 337 3 301 -3 339
-5 416 -25z"/>
<path d="M13322 7678 l3 -1043 803 -3 802 -2 0 165 0 165 -603 0 c-332 0 -606
2 -608 4 -2 2 -3 133 -1 290 l3 286 514 0 515 0 0 160 0 160 -515 0 -515 0 0
270 0 270 580 0 580 0 0 160 0 160 -780 0 -780 0 2 -1042z"/>
<path d="M17676 7677 l1 -1042 194 0 194 0 3 263 2 263 173 175 173 176 54
-64 c30 -36 91 -110 135 -164 44 -54 136 -166 205 -249 69 -83 161 -195 205
-250 44 -55 91 -112 104 -127 l24 -28 234 0 c128 0 233 3 233 6 0 3 -15 24
-32 48 -32 40 -62 78 -228 281 -41 50 -109 134 -151 186 -42 52 -159 195 -260
319 -102 124 -202 247 -223 273 l-39 48 139 142 c76 78 249 259 384 402 135
143 272 288 304 322 l59 63 -230 0 -231 0 -364 -377 c-199 -208 -432 -448
-515 -533 l-153 -155 0 533 0 532 -197 0 -198 0 1 -1043z"/>
<path d="M19970 7675 l0 -1045 756 2 757 3 -1 160 0 160 -556 3 -556 2 -2 878
-3 877 -197 3 -198 2 0 -1045z"/>
<path d="M21360 8716 c0 -7 493 -804 650 -1051 45 -71 105 -167 132 -211 l49
-82 2 -368 2 -369 198 -3 197 -2 0 363 0 363 168 274 c93 151 202 329 243 395
177 281 424 679 427 687 2 4 -88 8 -200 8 l-203 0 -104 -168 c-484 -776 -507
-812 -519 -812 -4 0 -16 15 -27 33 -10 17 -76 122 -145 232 -69 110 -186 297
-259 415 -74 118 -145 234 -160 257 l-26 42 -212 1 c-117 0 -213 -2 -213 -4z"/>
<path d="M5500 6504 l0 -905 1048 4 c1028 3 1050 4 1187 26 529 84 960 302
1286 648 252 268 438 675 494 1081 l7 52 -386 0 c-212 0 -386 -3 -386 -6 0
-26 -56 -247 -76 -300 -101 -269 -309 -519 -552 -663 -126 -75 -328 -146 -512
-180 -137 -25 -282 -31 -805 -31 l-555 0 0 590 0 590 -375 0 -375 0 0 -906z"/>
</g>
</svg>
